<?xml version="1.0" standalone="no"?>
<!DOCTYPE svg PUBLIC "-//W3C//DTD SVG 20010904//EN"
 "http://www.w3.org/TR/2001/REC-SVG-20010904/DTD/svg10.dtd">
<svg version="1.0" xmlns="http://www.w3.org/2000/svg"
 width="512.000000pt" height="512.000000pt" viewBox="0 0 512.000000 512.000000"
 preserveAspectRatio="xMidYMid meet">

<g transform="translate(0.000000,512.000000) scale(0.100000,-0.100000)"
fill="#000000" stroke="none">
<path d="M2105 5109 c-479 -61 -912 -394 -1095 -844 -21 -50 -48 -132 -61
-182 l-23 -92 -51 -7 c-188 -25 -374 -117 -524 -259 -404 -383 -396 -1029 19
-1407 130 -119 318 -210 490 -237 41 -7 356 -11 848 -11 864 0 822 -3 862 63
34 55 22 125 -30 172 -22 20 -40 20 -829 25 -801 6 -806 6 -881 29 -224 68
-403 238 -475 452 -39 119 -46 262 -16 380 53 209 179 367 372 464 101 51 178
69 304 69 136 0 207 -18 338 -84 108 -55 144 -61 195 -30 81 50 81 162 0 224
-50 38 -189 101 -265 121 -37 10 -72 22 -77 26 -11 10 27 134 69 226 51 110
117 206 211 303 143 148 316 250 520 307 92 26 112 28 279 27 163 0 189 -3
280 -27 251 -68 493 -238 635 -447 82 -121 163 -320 183 -453 6 -37 5 -38 -59
-78 -71 -45 -97 -82 -97 -141 0 -45 23 -82 66 -108 47 -29 95 -25 153 12 66
42 178 93 237 107 196 47 419 1 580 -120 126 -95 211 -221 258 -383 29 -99 66
-136 137 -136 122 1 160 91 107 254 -109 334 -382 578 -730 652 -75 16 -223
20 -326 9 l-65 -7 -23 94 c-59 241 -183 460 -360 637 -106 105 -178 161 -303
234 -244 141 -562 202 -853 166z"/>
<path d="M3303 2831 c-82 -38 -123 -128 -123 -275 0 -130 48 -230 127 -262 43
-18 137 -18 172 0 79 41 121 136 121 271 0 96 -20 172 -57 216 -55 65 -158 87
-240 50z m142 -131 c17 -29 20 -52 20 -142 0 -93 -3 -110 -21 -135 -32 -42
-81 -40 -108 6 -24 42 -33 167 -17 229 24 87 87 108 126 42z"/>
<path d="M4695 2836 c-39 -17 -79 -55 -99 -94 -29 -55 -41 -163 -29 -247 20
-141 91 -215 206 -215 138 0 207 91 211 275 0 51 -5 110 -13 137 -16 57 -72
125 -118 144 -41 18 -119 17 -158 0z m129 -129 c29 -39 36 -198 11 -263 -27
-70 -89 -74 -120 -7 -22 45 -25 206 -5 244 34 66 77 76 114 26z"/>
<path d="M2872 2775 c-51 -37 -92 -68 -92 -71 0 -11 54 -84 62 -84 6 0 27 14
48 30 21 17 41 30 44 30 3 0 6 -88 6 -195 l0 -195 65 0 65 0 0 275 0 275 -53
0 c-50 0 -60 -4 -145 -65z"/>
<path d="M4260 2779 c-47 -34 -89 -65 -94 -69 -4 -5 7 -29 26 -53 l34 -45 50
39 49 38 3 -199 2 -200 65 0 65 0 -2 273 -3 272 -55 3 c-54 3 -58 1 -140 -59z"/>
<path d="M4230 1979 c-98 -39 -152 -179 -130 -335 15 -111 62 -187 133 -213
44 -17 124 -13 165 8 47 24 66 45 94 106 19 42 23 67 23 160 0 93 -4 118 -23
160 -29 63 -48 84 -97 106 -43 20 -125 24 -165 8z m135 -144 c15 -31 19 -61
19 -130 0 -105 -20 -161 -62 -172 -59 -14 -92 46 -92 169 0 127 26 182 84 176
25 -2 35 -11 51 -43z"/>
<path d="M2853 1912 l-91 -67 29 -40 c17 -22 33 -41 38 -43 4 -1 29 14 54 33
l47 36 0 -201 0 -200 65 0 65 0 0 275 0 275 -57 0 c-56 0 -62 -3 -150 -68z"/>
<path d="M3310 1915 c-47 -35 -85 -67 -85 -72 0 -13 49 -83 59 -83 4 0 25 14
46 30 21 17 41 30 44 30 3 0 7 -87 8 -192 l3 -193 63 -3 62 -3 0 276 0 275
-57 -1 c-55 0 -62 -3 -143 -64z"/>
<path d="M3760 1915 c-47 -36 -86 -68 -87 -72 -2 -4 12 -26 30 -47 l34 -39 49
37 49 38 3 -201 2 -201 60 0 60 0 0 275 0 275 -57 -1 c-55 0 -62 -4 -143 -64z"/>
<path d="M2826 1220 c-68 -21 -105 -90 -106 -194 0 -133 46 -205 137 -213 119
-10 189 101 163 261 -18 113 -100 176 -194 146z m86 -110 c37 -73 12 -211 -39
-218 -61 -9 -85 179 -31 238 27 28 49 22 70 -20z"/>
<path d="M3475 1216 c-70 -31 -96 -87 -97 -200 0 -62 5 -87 24 -123 53 -103
190 -111 250 -15 27 44 37 170 18 236 -25 91 -115 138 -195 102z m84 -85 c23
-23 36 -96 27 -154 -19 -116 -93 -116 -112 0 -13 81 17 173 56 173 6 0 19 -9
29 -19z"/>
<path d="M4565 1216 c-70 -32 -96 -87 -97 -200 0 -62 5 -87 24 -123 53 -103
190 -111 250 -15 18 29 23 55 26 127 3 79 1 95 -20 134 -13 25 -35 53 -49 64
-34 24 -96 31 -134 13z m84 -85 c55 -55 29 -248 -32 -239 -64 9 -79 201 -20
246 22 16 30 15 52 -7z"/>
<path d="M3137 1170 l-67 -51 22 -29 c12 -17 25 -30 29 -30 4 0 21 12 38 26
l31 26 0 -147 0 -146 48 3 47 3 0 195 0 195 -40 3 c-36 3 -49 -3 -108 -48z"/>
<path d="M3797 1175 c-32 -24 -61 -46 -64 -48 -7 -7 29 -67 40 -67 5 0 24 12
43 26 l34 26 0 -146 0 -146 45 0 45 0 0 200 0 200 -42 -1 c-34 0 -55 -9 -101
-44z"/>
<path d="M4885 1174 c-33 -25 -61 -49 -63 -54 -4 -11 29 -59 41 -60 5 0 24 12
43 26 l34 26 0 -146 0 -146 45 0 45 0 0 200 0 200 -42 0 c-35 0 -54 -9 -103
-46z"/>
<path d="M4190 741 c-106 -57 -111 -300 -8 -375 38 -27 117 -28 155 0 49 36
73 97 73 189 0 64 -5 90 -22 125 -38 75 -124 101 -198 61z m105 -85 c37 -56
27 -204 -15 -226 -49 -26 -87 48 -77 148 7 62 29 102 57 102 11 0 27 -11 35
-24z"/>
<path d="M4840 737 c-51 -34 -72 -78 -78 -162 -6 -93 16 -165 61 -199 77 -59
176 -36 218 50 32 65 34 188 4 249 -40 81 -135 110 -205 62z m116 -92 c16 -39
19 -141 4 -179 -5 -14 -18 -30 -30 -36 -17 -9 -24 -6 -46 15 -25 25 -26 30
-22 114 3 96 15 121 55 121 18 0 28 -9 39 -35z"/>
<path d="M4522 704 c-34 -25 -62 -49 -62 -52 0 -4 10 -20 23 -36 l23 -28 31
26 c17 14 34 26 37 26 3 0 6 -65 6 -145 l0 -145 45 0 45 0 0 200 0 200 -43 0
c-36 0 -54 -8 -105 -46z"/>
<path d="M2777 616 c-14 -13 -29 -37 -32 -53 -4 -15 -8 -37 -10 -48 -7 -32 15
-108 37 -132 29 -31 78 -39 116 -19 73 38 83 202 15 256 -36 28 -93 27 -126
-4z m103 -118 c0 -58 -13 -88 -39 -88 -26 0 -45 51 -38 107 11 99 77 83 77
-19z"/>
<path d="M3018 599 c-32 -26 -36 -34 -28 -50 13 -23 28 -24 52 -2 17 15 18 12
18 -85 l0 -102 35 0 35 0 0 135 0 135 -37 0 c-27 -1 -49 -10 -75 -31z"/>
<path d="M3600 277 c-75 -37 -81 -210 -9 -261 37 -25 84 -20 121 13 32 29 33
31 33 116 0 85 -1 87 -33 116 -35 31 -71 37 -112 16z m79 -78 c29 -83 -12
-172 -57 -127 -15 15 -16 112 -2 139 17 30 46 24 59 -12z"/>
<path d="M3823 248 c-40 -30 -41 -32 -26 -55 15 -22 17 -23 39 -8 13 8 26 15
29 15 3 0 5 -43 5 -95 l0 -95 30 0 30 0 0 135 0 135 -32 -1 c-20 0 -50 -13
-75 -31z"/>
</g>
</svg>
